<!-- <?xml version="1.0" encoding="utf-8"?> -->
<!-- Generator: Adobe Illustrator 21.1.0, SVG Export Plug-In . SVG Version: 6.00 Build 0)  -->
<svg version="1.1"
	id="Layer_1"
	x="0px" y="0px"
	viewBox="0 0 1124 276"
	style="enable-background:new 0 0 1124 276;"
	xml:space="preserve">

<style type="text/css">
	.st0{fill:#F7F7F7;}
	.st1{fill:#FAFAFA;}
</style>

<g id='g-4'>
	<path class="st0" d="M4.6,34.2C4.6,19.2,17.4,6,33.3,6c9,0,15.1,3.8,18.9,10l-8.6,6c-2.8-3.9-5.9-6.5-11.6-6.5
		c-8.6,0-16.6,8.2-16.6,18.2c0,6.8,4.8,11.4,11.5,11.4c4.6,0,7.5-1.8,11-4.6l6.7,7c-4.5,4.2-10,7.2-17.8,7.2
		C14,54.7,4.6,46.8,4.6,34.2z"/>
	<path class="st0" d="M61.8,4.8h10.2l-4.4,16.8c2.6-2.3,5.8-4.4,9.8-4.4c6.5,0,10.6,4,10.6,10.5c0,2-0.6,4.6-1.2,6.9l-5.2,19.4H71.5
		l5.3-19.8c0.3-1,0.5-2.4,0.5-3.2c0-2.9-1.8-4.4-5-4.4c-4,0-6.7,2.9-7.8,7.2L59,53.9H48.8L61.8,4.8z"/>
	<path class="st0" d="M91.3,44.9c0-8.4,6.8-13,15.6-13c3.9,0,7.1,0.7,10.2,1.6l0.1-0.5c0.2-0.8,0.4-1.6,0.4-2.7
		c0-2.5-1.8-4.2-6.8-4.2c-3.5,0-7,0.9-9.6,2L99.6,20c3.7-1.5,8.3-2.6,13.4-2.6c9.7,0,14.6,4,14.6,11.1c0,1.9-0.3,3.6-0.8,5.5
		l-5.3,19.9h-9.9l1.1-4.2c-2.9,3.1-6.5,4.8-10.8,4.8C95.6,54.6,91.3,50.6,91.3,44.9z M115.3,40.3l0.3-0.9c-1.8-0.7-4.2-1.3-6.7-1.3
		c-4.2,0-7.3,2.2-7.3,5.7c0,2.2,1.8,3.8,4.7,3.8C110.5,47.6,114.2,44.2,115.3,40.3z"/>
	<path class="st0" d="M139.9,17.8h10.2l-2,7.3c3.6-5.3,7.8-8.4,13.7-7.9L159,27.9h-0.5c-6.8,0-12.1,3.9-14.5,13.3l-3.4,12.8h-10.2
		L139.9,17.8z"/>
	<path class="st0" d="M172.1,4.8h10.2l-13.2,49.2h-10.2L172.1,4.8z"/>
	<path class="st0" d="M199.6,46.5c2.7,0,5.1-0.8,8-2.9l4.7,6.3c-3.2,2.7-7.7,4.8-13.9,4.8c-10.4,0-16.7-6.1-16.7-16
		c0-10.4,8.5-21.5,21.4-21.5c9.4,0,14.7,6.1,14.7,14.1c0,2.6-0.7,5.5-1.8,8.2h-24.7C191.7,43.7,194.2,46.5,199.6,46.5z M208,33.1
		c0.2-0.7,0.3-1.5,0.3-2.4c0-3-1.8-5.3-5.9-5.3c-4.6,0-8.4,3.1-10.1,7.7H208z"/>
	<path class="st0" d="M215.5,62.4L221,55c1.1,0.8,2.6,1.4,4,1.4c1.5,0,2.6-0.4,4-2.2l-4.4-36.4h10.4l1.7,24.5l13.5-24.5h11l-22.4,37
		c-4.7,7.3-8.8,10.1-14.9,10.1C220.2,64.9,217.7,64,215.5,62.4z"/>
	<path class="st0" d="M309.2,49.7c-4.4,3.1-9.2,4.9-14.4,4.9c-8.8,0-14.9-4.7-14.9-12.7c0-5.7,3.8-11.5,13.3-14.7
		c-1.5-2.7-2.5-5.6-2.5-8.1c0-6.9,5.8-13.1,15-13.1c7.7,0,13,4.8,13,11.3c0,4.6-2.8,9.7-12.7,13.1l5.3,7.1c2-2.2,3.9-4.7,5.7-7.6
		l6.3,4.4c-2.3,3.5-4.8,6.7-7.3,9.5l4.6,6.3l-7.6,4.8L309.2,49.7z M304.5,43.2l-7.3-10c-5.4,2.1-7.7,5.2-7.7,8.1
		c0,2.7,2.2,4.8,6.3,4.8C298.5,46.1,301.5,45.1,304.5,43.2z M309.4,17.9c0-1.8-1.4-3.8-4.2-3.8c-3.4,0-5.5,2.5-5.5,5.2
		c0,1.3,0.4,3,2,5.3C307.8,22.3,309.4,20.6,309.4,17.9z"/>
	<path class="st0" d="M374.4,6.5h10l7.5,47.5h-10.6l-1.5-10.6h-19.9l-7.1,10.6h-11.2L374.4,6.5z M378.5,34.2l-2.2-15.6L366,34.2
		H378.5z"/>
	<path class="st0" d="M395.2,48.2l5.9-6.1c3.8,3.8,7.8,4.8,11,4.8c2.7,0,4.3-1.1,4.3-3.2c0-1.3-1.7-2.3-4.2-3.4
		c-5.7-2.4-10.5-4.8-10.5-10.6c0-7.2,5.5-12.7,14.5-12.7c5.9,0,11.2,2.6,14.2,5.2l-5.5,6.5c-3.5-2.8-6.5-3.8-9.4-3.8
		c-2.5,0-4,1.1-4,3c0,1.4,1.8,2.4,4.8,3.8c4.7,2.1,9.9,4.6,9.9,10.2c0,7.9-6.2,12.7-14.8,12.7C406,54.7,399.5,52.7,395.2,48.2z"/>
	<path class="st0" d="M443.4,4.8h10.2l-4.4,16.8c2.6-2.3,5.8-4.4,9.8-4.4c6.5,0,10.6,4,10.6,10.5c0,2-0.6,4.6-1.2,6.9l-5.2,19.4H453
		l5.3-19.8c0.3-1,0.5-2.4,0.5-3.2c0-2.9-1.8-4.4-5-4.4c-4,0-6.7,2.9-7.8,7.2l-5.5,20.3h-10.2L443.4,4.8z"/>
	<path class="st0" d="M493,46.5c2.7,0,5.1-0.8,8-2.9l4.7,6.3c-3.2,2.7-7.7,4.8-13.9,4.8c-10.4,0-16.7-6.1-16.7-16
		c0-10.4,8.5-21.5,21.4-21.5c9.4,0,14.7,6.1,14.7,14.1c0,2.6-0.7,5.5-1.8,8.2h-24.7C485.1,43.7,487.6,46.5,493,46.5z M501.4,33.1
		c0.2-0.7,0.3-1.5,0.3-2.4c0-3-1.8-5.3-5.9-5.3c-4.6,0-8.4,3.1-10.1,7.7H501.4z"/>
	<path class="st0" d="M522.7,17.8H533l-2,7.3c3.6-5.3,7.8-8.4,13.7-7.9l-2.9,10.7h-0.5c-6.8,0-12.1,3.9-14.5,13.3l-3.4,12.8h-10.2
		L522.7,17.8z"/>
	<path class="st0" d="M549,24.2c5.5-0.5,8.1-2.8,8.8-6.7h-4.2l2.9-10.8h10.9l-2.4,9.1c-2.4,8.9-7.3,12.4-15.3,12.6L549,24.2z"/>
	<path class="st0" d="M562.7,48.2l5.9-6.1c3.8,3.8,7.8,4.8,11,4.8c2.7,0,4.3-1.1,4.3-3.2c0-1.3-1.7-2.3-4.2-3.4
		c-5.7-2.4-10.5-4.8-10.5-10.6c0-7.2,5.5-12.7,14.5-12.7c5.9,0,11.2,2.6,14.2,5.2l-5.5,6.5C589,26.1,586,25,583,25c-2.5,0-4,1.1-4,3
		c0,1.4,1.8,2.4,4.8,3.8c4.7,2.1,9.9,4.6,9.9,10.2c0,7.9-6.2,12.7-14.8,12.7C573.5,54.7,567,52.7,562.7,48.2z"/>
</g>

<g id='g-3'>
	<path class="st0" d="M135.8,73.5h18.3l-8.8,32.9h33.2l8.8-32.9h18.3l-22.3,83.1H165l9-33.4h-33.2l-9,33.4h-18.3L135.8,73.5z"/>
	<path class="st0" d="M209.8,121.2c0-24.8,20.2-49.1,50-49.1c22.9,0,38,15.9,38,36.8c0,24.8-20.2,49.1-50,49.1
		C224.9,158,209.8,142.1,209.8,121.2z M278.8,110.1c0-12.3-7.5-21.1-21.1-21.1c-17.5,0-28.8,16.7-28.8,31.1
		c0,12.3,7.5,21.1,21.1,21.1C267.4,141.2,278.8,124.5,278.8,110.1z"/>
	<path class="st0" d="M324.3,73.5h18.3L324.8,140h41.4l-4.5,16.6H302L324.3,73.5z"/>
	<path class="st0" d="M399.5,73.5h18.3l-22.3,83.1h-18.3L399.5,73.5z"/>
	<path class="st0" d="M438.5,73.5h24.2c16.1,0,26.2,4.4,32.5,10.7c6.2,6.2,9,14.2,9,24.3c0,12.5-4.7,23.9-13.7,32.8
		c-10,10-24.3,15.3-43.6,15.3h-30.9L438.5,73.5z M449.2,140.1c11,0,21.1-3.4,27.8-10.1c5.3-5.3,8.3-12.7,8.3-20.8
		c0-5.7-1.8-10.1-4.9-13.2c-3.7-3.7-9.7-6.1-19.1-6.1h-8.9l-13.5,50.1H449.2z"/>
	<path class="st0" d="M555.4,72.9h17.6l13.2,83.7h-18.8l-2.6-18.6h-35.1L517,156.6h-19.7L555.4,72.9z M562.6,121.8l-3.8-27.4
		l-18.3,27.4H562.6z"/>
	<path class="st0" d="M614.8,123.9l-17.2-50.3h20.3l9.7,34.4l28.5-34.4h22.1l-45.5,52l-8.4,31.1H606L614.8,123.9z"/>
</g>

<g id='g-2'>
	<path class="st0" d="M198.8,159.5h24.2c16.1,0,26.2,4.4,32.5,10.7c6.2,6.2,9,14.2,9,24.3c0,12.5-4.7,23.9-13.7,32.8
		c-10,10-24.3,15.3-43.6,15.3h-30.9L198.8,159.5z M209.5,226.1c11,0,21.1-3.4,27.8-10.1c5.3-5.3,8.3-12.7,8.3-20.8
		c0-5.7-1.8-10.1-4.9-13.2c-3.7-3.7-9.7-6.1-19.1-6.1h-8.9l-13.5,50.1H209.5z"/>
	<path class="st0" d="M315.6,158.9h17.6l13.2,83.7h-18.8L325,224h-35.1l-12.6,18.6h-19.7L315.6,158.9z M322.9,207.8l-3.8-27.4
		l-18.3,27.4H322.9z"/>
	<path class="st0" d="M378.9,159.5h16.9l24.2,52.8l14.2-52.8h18L430,242.6h-15.6l-25.2-54.5l-14.6,54.5h-18L378.9,159.5z"/>
	<path class="st0" d="M456.4,207.8c0-26.5,22.6-49.7,50.6-49.7c15.9,0,26.6,6.8,33.2,17.7l-15.1,10.6c-4.9-6.9-10.4-11.4-20.4-11.4
		c-15.2,0-29.3,14.5-29.3,32.2c0,12,8.4,20.1,20.3,20.1c8.1,0,13.3-3.2,19.5-8.2l11.9,12.3c-8,7.4-17.6,12.7-31.5,12.7
		C472.9,244,456.4,230,456.4,207.8z"/>
	<path class="st0" d="M558.4,159.5h62.1l-4.4,16.3h-43.9l-4.5,17h38.6l-4.4,16h-38.6l-4.7,17.6h44.6l-4.4,16.3h-62.7L558.4,159.5z"
		/>
	<path class="st0" d="M673,159.5h26.4c11.9,0,20.1,2.4,26.1,8.4c4.3,4.3,6.4,9.9,6.4,17.1c0,20.7-17.7,32.4-40.4,32.4h-15.8
		l-6.8,25.2h-18.3L673,159.5z M692.4,201.4c12.1,0,20.3-5.5,20.3-14.8c0-2.7-1-5.1-2.7-6.9c-2.5-2.5-5.9-3.7-11.4-3.7h-11.9
		l-6.8,25.4H692.4z"/>
	<path class="st0" d="M774.6,158.9h17.6l13.2,83.7h-18.8L784,224h-35.1l-12.6,18.6h-19.7L774.6,158.9z M781.8,207.8l-3.8-27.4
		l-18.3,27.4H781.8z"/>
	<path class="st0" d="M837.8,159.5h30.3c12.3,0,20.8,2.7,26.4,8.3c4.2,4.2,6.4,10,6.4,16.7c0,15-9.1,25.5-26.8,29.7l14.1,28.4h-20.8
		L854.6,216h-13.7l-7.1,26.6h-18.3L837.8,159.5z M861.6,199.9c11.4,0,20.2-4.6,20.2-13.8c0-2.8-0.8-4.9-2.6-6.6
		c-2.3-2.3-6.3-3.4-12.1-3.4h-15.3l-6.4,23.9H861.6z"/>
	<path class="st0" d="M934.1,176.4h-25.3l4.5-16.9h68.9l-4.5,16.9h-25.3l-17.8,66.2h-18.3L934.1,176.4z"/>
	<path class="st0" d="M999.9,209.9l-17.2-50.3h20.3l9.7,34.4l28.5-34.4h22.1l-45.5,52l-8.4,31.1h-18.3L999.9,209.9z"/>
</g>

<g id='g-1'>
	<path class="st1" d="M1072,161.1h-2.6l0.5-1.7h7l-0.5,1.7h-2.6l-1.8,6.7h-1.8L1072,161.1z"/>
	<path class="st1" d="M1078.1,159.4h1.9l1.2,3.6l3.1-3.6h2.1l-2.3,8.4h-1.9l1.5-5.5l-3.3,3.6h0l-1.3-3.5l-1.5,5.4h-1.8L1078.1,159.4
		z"/>
</g>

</svg>
